solid box
  facet normal -1.000000 0.000000 0.000000
    outer loop
      vertex -100.000000 70.000000 -25.000000
      vertex -100.000000 -70.000000 -25.000000
      vertex -100.000000 70.000000 25.000000
    endloop
  endfacet
  facet normal -1.000000 -0.000000 0.000000
    outer loop
      vertex -100.000000 70.000000 25.000000
      vertex -100.000000 -70.000000 -25.000000
      vertex -100.000000 -70.000000 25.000000
    endloop
  endfacet
  facet normal 0.000000 -1.000000 0.000000
    outer loop
      vertex -100.000000 -70.000000 -25.000000
      vertex 100.000000 -70.000000 -25.000000
      vertex -100.000000 -70.000000 25.000000
    endloop
  endfacet
  facet normal 0.000000 -1.000000 0.000000
    outer loop
      vertex -100.000000 -70.000000 25.000000
      vertex 100.000000 -70.000000 -25.000000
      vertex 100.000000 -70.000000 25.000000
    endloop
  endfacet
  facet normal 1.000000 0.000000 0.000000
    outer loop
      vertex 100.000000 -70.000000 -25.000000
      vertex 100.000000 70.000000 -25.000000
      vertex 100.000000 -70.000000 25.000000
    endloop
  endfacet
  facet normal 1.000000 -0.000000 0.000000
    outer loop
      vertex 100.000000 -70.000000 25.000000
      vertex 100.000000 70.000000 -25.000000
      vertex 100.000000 70.000000 25.000000
    endloop
  endfacet
  facet normal 0.000000 1.000000 -0.000000
    outer loop
      vertex 100.000000 70.000000 -25.000000
      vertex -100.000000 70.000000 -25.000000
      vertex 100.000000 70.000000 25.000000
    endloop
  endfacet
  facet normal 0.000000 1.000000 0.000000
    outer loop
      vertex 100.000000 70.000000 25.000000
      vertex -100.000000 70.000000 -25.000000
      vertex -100.000000 70.000000 25.000000
    endloop
  endfacet
  facet normal 0.000000 0.000000 -1.000000
    outer loop
      vertex -100.000000 70.000000 -25.000000
      vertex 100.000000 70.000000 -25.000000
      vertex -100.000000 -70.000000 -25.000000
    endloop
  endfacet
  facet normal 0.000000 0.000000 -1.000000
    outer loop
      vertex -100.000000 -70.000000 -25.000000
      vertex 100.000000 70.000000 -25.000000
      vertex 100.000000 -70.000000 -25.000000
    endloop
  endfacet
  facet normal 0.000000 0.000000 1.000000
    outer loop
      vertex 100.000000 70.000000 25.000000
      vertex -100.000000 70.000000 25.000000
      vertex -100.000000 -70.000000 25.000000
    endloop
  endfacet
  facet normal 0.000000 0.000000 1.000000
    outer loop
      vertex 100.000000 70.000000 25.000000
      vertex -100.000000 -70.000000 25.000000
      vertex 100.000000 -70.000000 25.000000
    endloop
  endfacet
endsolid box
