solid "inlet"
  facet normal -1 0 0
    outer loop
      vertex -0.0799999982119 -0.0100000007078 -2.60770960381e-10
      vertex -0.0799999982119 -0.0200000014156 -2.60770960381e-10
      vertex -0.0799999982119 -0.0100000007078 0.0100000007078
    endloop
  endfacet
  facet normal -1 0 0
    outer loop
      vertex -0.0799999982119 -0.0100000007078 0.0100000007078
      vertex -0.0799999982119 -0.0200000014156 -2.60770960381e-10
      vertex -0.0799999982119 -0.0200000014156 0.0100000007078
    endloop
  endfacet
endsolid "inlet"
