solid Pad (Meshed)
  facet normal -1.000000 0.000000 0.000000
    outer loop
      vertex -20.000000 10.000000 0.000000
      vertex -20.000000 -10.000000 0.000000
      vertex -20.000000 10.000000 10.000000
    endloop
  endfacet
  facet normal -1.000000 -0.000000 0.000000
    outer loop
      vertex -20.000000 10.000000 10.000000
      vertex -20.000000 -10.000000 0.000000
      vertex -20.000000 -10.000000 10.000000
    endloop
  endfacet
  facet normal 0.000000 1.000000 -0.000000
    outer loop
      vertex -20.000000 -10.000000 0.000000
      vertex -80.000000 -10.000000 0.000000
      vertex -20.000000 -10.000000 10.000000
    endloop
  endfacet
  facet normal 0.000000 1.000000 0.000000
    outer loop
      vertex -20.000000 -10.000000 10.000000
      vertex -80.000000 -10.000000 0.000000
      vertex -80.000000 -10.000000 10.000000
    endloop
  endfacet
  facet normal -1.000000 0.000000 0.000000
    outer loop
      vertex -80.000000 -10.000000 0.000000
      vertex -80.000000 -20.000000 0.000000
      vertex -80.000000 -10.000000 10.000000
    endloop
  endfacet
  facet normal -1.000000 -0.000000 0.000000
    outer loop
      vertex -80.000000 -10.000000 10.000000
      vertex -80.000000 -20.000000 0.000000
      vertex -80.000000 -20.000000 10.000000
    endloop
  endfacet
  facet normal 0.000000 -1.000000 0.000000
    outer loop
      vertex -80.000000 -20.000000 0.000000
      vertex -20.000000 -20.000000 0.000000
      vertex -80.000000 -20.000000 10.000000
    endloop
  endfacet
  facet normal 0.000000 -1.000000 0.000000
    outer loop
      vertex -80.000000 -20.000000 10.000000
      vertex -20.000000 -20.000000 0.000000
      vertex -20.000000 -20.000000 10.000000
    endloop
  endfacet
  facet normal 0.707107 -0.707107 0.000000
    outer loop
      vertex -20.000000 -20.000000 0.000000
      vertex -10.000000 -10.000000 10.000000
      vertex -20.000000 -20.000000 10.000000
    endloop
  endfacet
  facet normal 0.707107 -0.707107 0.000000
    outer loop
      vertex -20.000000 -20.000000 0.000000
      vertex -10.000000 -10.000000 0.000000
      vertex -10.000000 -10.000000 10.000000
    endloop
  endfacet
  facet normal 1.000000 0.000000 0.000000
    outer loop
      vertex -10.000000 -10.000000 0.000000
      vertex -10.000000 10.000000 0.000000
      vertex -10.000000 -10.000000 10.000000
    endloop
  endfacet
  facet normal 1.000000 -0.000000 0.000000
    outer loop
      vertex -10.000000 -10.000000 10.000000
      vertex -10.000000 10.000000 0.000000
      vertex -10.000000 10.000000 10.000000
    endloop
  endfacet
  facet normal 0.000000 -1.000000 0.000000
    outer loop
      vertex -10.000000 10.000000 0.000000
      vertex 70.000000 10.000000 10.000000
      vertex -10.000000 10.000000 10.000000
    endloop
  endfacet
  facet normal 0.000000 -1.000000 0.000000
    outer loop
      vertex -10.000000 10.000000 0.000000
      vertex 70.000000 10.000000 0.000000
      vertex 70.000000 10.000000 10.000000
    endloop
  endfacet
  facet normal 1.000000 0.000000 0.000000
    outer loop
      vertex 70.000000 10.000000 0.000000
      vertex 70.000000 20.000000 0.000000
      vertex 70.000000 10.000000 10.000000
    endloop
  endfacet
  facet normal 1.000000 -0.000000 0.000000
    outer loop
      vertex 70.000000 10.000000 10.000000
      vertex 70.000000 20.000000 0.000000
      vertex 70.000000 20.000000 10.000000
    endloop
  endfacet
  facet normal 0.000000 1.000000 -0.000000
    outer loop
      vertex 70.000000 20.000000 0.000000
      vertex -10.000000 20.000000 10.000000
      vertex 70.000000 20.000000 10.000000
    endloop
  endfacet
  facet normal 0.000000 1.000000 0.000000
    outer loop
      vertex 70.000000 20.000000 0.000000
      vertex -10.000000 20.000000 0.000000
      vertex -10.000000 20.000000 10.000000
    endloop
  endfacet
  facet normal -0.707107 0.707107 0.000000
    outer loop
      vertex -10.000000 20.000000 10.000000
      vertex -20.000000 10.000000 0.000000
      vertex -20.000000 10.000000 10.000000
    endloop
  endfacet
  facet normal -0.707107 0.707107 0.000000
    outer loop
      vertex -10.000000 20.000000 0.000000
      vertex -20.000000 10.000000 0.000000
      vertex -10.000000 20.000000 10.000000
    endloop
  endfacet
  facet normal 0.000000 0.000000 -1.000000
    outer loop
      vertex -80.000000 -10.000000 0.000000
      vertex -20.000000 -10.000000 0.000000
      vertex -80.000000 -20.000000 0.000000
    endloop
  endfacet
  facet normal 0.000000 0.000000 -1.000000
    outer loop
      vertex -80.000000 -20.000000 0.000000
      vertex -20.000000 -10.000000 0.000000
      vertex -20.000000 -20.000000 0.000000
    endloop
  endfacet
  facet normal 0.000000 0.000000 -1.000000
    outer loop
      vertex -20.000000 -10.000000 0.000000
      vertex -10.000000 -10.000000 0.000000
      vertex -20.000000 -20.000000 0.000000
    endloop
  endfacet
  facet normal 0.000000 0.000000 -1.000000
    outer loop
      vertex -20.000000 10.000000 0.000000
      vertex -10.000000 10.000000 0.000000
      vertex -20.000000 -10.000000 0.000000
    endloop
  endfacet
  facet normal 0.000000 0.000000 -1.000000
    outer loop
      vertex -20.000000 -10.000000 0.000000
      vertex -10.000000 10.000000 0.000000
      vertex -10.000000 -10.000000 0.000000
    endloop
  endfacet
  facet normal 0.000000 0.000000 -1.000000
    outer loop
      vertex -20.000000 10.000000 0.000000
      vertex -10.000000 20.000000 0.000000
      vertex -10.000000 10.000000 0.000000
    endloop
  endfacet
  facet normal 0.000000 0.000000 -1.000000
    outer loop
      vertex -10.000000 20.000000 0.000000
      vertex 70.000000 10.000000 0.000000
      vertex -10.000000 10.000000 0.000000
    endloop
  endfacet
  facet normal 0.000000 0.000000 -1.000000
    outer loop
      vertex -10.000000 20.000000 0.000000
      vertex 70.000000 20.000000 0.000000
      vertex 70.000000 10.000000 0.000000
    endloop
  endfacet
  facet normal 0.000000 0.000000 1.000000
    outer loop
      vertex -20.000000 -10.000000 10.000000
      vertex -80.000000 -10.000000 10.000000
      vertex -80.000000 -20.000000 10.000000
    endloop
  endfacet
  facet normal 0.000000 0.000000 1.000000
    outer loop
      vertex -20.000000 -10.000000 10.000000
      vertex -80.000000 -20.000000 10.000000
      vertex -20.000000 -20.000000 10.000000
    endloop
  endfacet
  facet normal 0.000000 0.000000 1.000000
    outer loop
      vertex -10.000000 -10.000000 10.000000
      vertex -20.000000 -10.000000 10.000000
      vertex -20.000000 -20.000000 10.000000
    endloop
  endfacet
  facet normal 0.000000 0.000000 1.000000
    outer loop
      vertex -10.000000 10.000000 10.000000
      vertex -20.000000 10.000000 10.000000
      vertex -20.000000 -10.000000 10.000000
    endloop
  endfacet
  facet normal 0.000000 0.000000 1.000000
    outer loop
      vertex -10.000000 10.000000 10.000000
      vertex -20.000000 -10.000000 10.000000
      vertex -10.000000 -10.000000 10.000000
    endloop
  endfacet
  facet normal 0.000000 0.000000 1.000000
    outer loop
      vertex -10.000000 20.000000 10.000000
      vertex -20.000000 10.000000 10.000000
      vertex -10.000000 10.000000 10.000000
    endloop
  endfacet
  facet normal 0.000000 0.000000 1.000000
    outer loop
      vertex 70.000000 10.000000 10.000000
      vertex -10.000000 20.000000 10.000000
      vertex -10.000000 10.000000 10.000000
    endloop
  endfacet
  facet normal 0.000000 0.000000 1.000000
    outer loop
      vertex 70.000000 20.000000 10.000000
      vertex -10.000000 20.000000 10.000000
      vertex 70.000000 10.000000 10.000000
    endloop
  endfacet
endsolid Mesh
